{"title":"Breathe Carolina Ft. Karmin - Bang It Out [Music Video] 1080p [S","uid":10162113,"size":130989442,"categoryP":"video","categoryS":"music_videos","magnet":"?xt=urn:btih:0d688875376c25004fb9f7fe60d4e88f20f86ad1&amp;dn=Breathe+Carolina+Ft.+Karmin+-+Bang+It+Out+%5BMusic+Video%5D+1080p+%5BS&amp;tr=udp%3A%2F%2Ftracker.openbittorrent.com%3A80&amp;tr=udp%3A%2F%2Fopen.demonii.com%3A1337&amp;tr=udp%3A%2F%2Ftracker.coppersurfer.tk%3A6969&amp;tr=udp%3A%2F%2Fexodus.desync.com%3A6969","seeders":1,"leechers":0,"uploader":"Sbyky","files":1,"time":1400311228,"description":"\n\nGeneral\nComplete name                            : Breathe Carolina Ft. Karmin - Bang It Out [Music Video] 1080p [Sbyky].MP4\nFormat                                   : MPEG-4\nFormat profile                           : Base Media\nCodec ID                                 : isom\nFile size                                : 125 MiB\nDuration                                 : 4mn 11s\nOverall bit rate mode                    : Variable\nOverall bit rate                         : 4 165 Kbps\nEncoded date                             : UTC 2014-05-06 19:26:02\nTagged date                              : UTC 2014-05-06 19:26:02\n\nVideo\nID                                       : 1\nFormat                                   : AVC\nFormat/Info                              : Advanced Video Codec\nFormat profile                           : &lt;a class=&quot;__cf_email__&quot; href=&quot;/cdn-cgi/l/email-protection&quot; data-cfemail=&quot;561e3f313e161a627866&quot;&gt;[email&amp;#160;protected]&lt;/a&gt;&lt;script cf-hash='f9e31' type=&quot;text/javascript&quot;&gt;\n/* &lt;![CDATA[ */!function(){try{var t=&quot;currentScript&quot;in document?document.currentScript:function(){for(var t=document.getElementsByTagName(&quot;script&quot;),e=t.length;e--;)if(t[e].getAttribute(&quot;cf-hash&quot;))return t[e]}();if(t&amp;&amp;t.previousSibling){var e,r,n,i,c=t.previousSibling,a=c.getAttribute(&quot;data-cfemail&quot;);if(a){for(e=&quot;&quot;,r=parseInt(a.substr(0,2),16),n=2;a.length-n;n+=2)i=parseInt(a.substr(n,2),16)^r,e+=String.fromCharCode(i);e=document.createTextNode(e),c.parentNode.replaceChild(e,c)}}}catch(u){}}();/* ]]&gt; */&lt;/script&gt;\nFormat settings, CABAC                   : Yes\nFormat settings, ReFrames                : 3 frames\nCodec ID                                 : avc1\nCodec ID/Info                            : Advanced Video Coding\nDuration                                 : 4mn 11s\nBit rate                                 : 4 036 Kbps\nWidth                                    : 1 920 pixels\nHeight                                   : 1 080 pixels\nDisplay aspect ratio                     : 16:9\nFrame rate mode                          : Variable\nFrame rate                               : 23.976 fps\nMinimum frame rate                       : 23.974 fps\nMaximum frame rate                       : 1 343.284 fps\nColor space                              : YUV\nChroma subsampling                       : 4:2:0\nBit depth                                : 8 bits\nScan type                                : Progressive\nBits/(Pixel*Frame)                       : 0.081\nStream size                              : 121 MiB (97%)\nEncoded date                             : UTC 2014-05-06 19:26:02\nTagged date                              : UTC 2014-05-06 19:26:02\n\nAudio\nID                                       : 2\nFormat                                   : AAC\nFormat/Info                              : Advanced Audio Codec\nFormat profile                           : LC\nCodec ID                                 : 40\nDuration                                 : 4mn 11s\nBit rate mode                            : Variable\nBit rate                                 : 126 Kbps\nChannel(s)                               : 2 channels\nChannel positions                        : Front: L R\nSampling rate                            : 44.1 KHz\nCompression mode                         : Lossy\nStream size                              : 3.77 MiB (3%)\nEncoded date                             : UTC 2014-05-06 16:24:21\nTagged date                              : UTC 2014-05-06 16:24:21\n\nShared By Sbyky\n","torrent":{"xt":"urn:btih:0d688875376c25004fb9f7fe60d4e88f20f86ad1","amp;dn":"Breathe+Carolina+Ft.+Karmin+-+Bang+It+Out+%5BMusic+Video%5D+1080p+%5BS","amp;tr":["udp%3A%2F%2Ftracker.openbittorrent.com%3A80","udp%3A%2F%2Fopen.demonii.com%3A1337","udp%3A%2F%2Ftracker.coppersurfer.tk%3A6969","udp%3A%2F%2Fexodus.desync.com%3A6969"],"infoHash":"0d688875376c25004fb9f7fe60d4e88f20f86ad1","infoHashBuffer":{"type":"Buffer","data":[13,104,136,117,55,108,37,0,79,185,247,254,96,212,232,143,32,248,106,209]},"announce":[],"urlList":[]}}